# xmcd
#
# Track frame offsets:
#  150
#  15772
#  31600
#  46170
#  61995
#  77320
#  91725
#  106005
#  134957
#  148535
#  162862
#  178560
#  194527
#  208540
#  221967
#  236292
#
# Disc length: 3344 seconds
#
# Revision: 2
# Processed by: cddbd v1.5.1PL0 Copyright (c) Steve Scherf et al.
# Submitted via: AltoMP3_Maker 3.0
#
DISCID=c70d0e10
DTITLE=Bessie Smith - Empress of the Blues
DYEAR=1900
DGENRE=
TTITLE0=Downhearted Blues
TTITLE1=T'ain't Nobody's Business If I Do
TTITLE2=St Louis Blues
TTITLE3=You've Been a Good Ole Wagon
TTITLE4=I Ain't Gonna Play No Second Fiddle
TTITLE5=Young Woman's Blues
TTITLE6=Muddy Water
TTITLE7=Empty Bed Blues
TTITLE8=Nobody Knows You When You're Down and Out
TTITLE9=Black Mountain Blues
TTITLE10=Do Your Duty
TTITLE11=Gimme A Pigfoot
TTITLE12=Surf Coast Blues
TTITLE13=Baby, Won't you Please Come Home
TTITLE14=Easy Come, Easy Go Blues
TTITLE15=Rockin' Chair Blues
EXTD=
EXTT0=
EXTT1=
EXTT2=
EXTT3=
EXTT4=
EXTT5=
EXTT6=
EXTT7=
EXTT8=
EXTT9=
EXTT10=
EXTT11=
EXTT12=
EXTT13=
EXTT14=
EXTT15=
PLAYORDER=
